<svg width="4921" height="957" viewBox="0 0 4921 957" fill="none" xmlns="http://www.w3.org/2000/svg">
<path d="M662.4 0H220.8C201.28 0 182.56 7.75587 168.757 21.5614C154.954 35.367 147.2 54.0913 147.2 73.6153V147.231H73.6C54.0801 147.231 35.3596 154.986 21.5569 168.792C7.75426 182.598 1.14693e-08 201.322 1.14692e-08 220.846V920.191C-0.000168774 926.954 1.86261 933.587 5.38383 939.36C8.90506 945.134 13.9486 949.826 19.9608 952.92C25.973 956.015 32.7215 957.393 39.4654 956.903C46.2093 956.413 52.6879 954.075 58.19 950.144L294.4 781.381L530.656 950.144C536.158 954.062 542.632 956.39 549.369 956.873C556.105 957.356 562.845 955.975 568.85 952.882C574.854 949.789 579.892 945.103 583.411 939.337C586.93 933.57 588.794 926.947 588.8 920.191V739.328L677.81 802.913C683.312 806.844 689.791 809.183 696.535 809.673C703.278 810.163 710.027 808.784 716.039 805.69C722.051 802.595 727.095 797.903 730.616 792.13C734.137 786.356 736 779.724 736 772.961V73.6153C736 54.0913 728.246 35.367 714.443 21.5614C700.64 7.75587 681.92 0 662.4 0ZM515.2 848.693L315.744 706.063C309.503 701.604 302.024 699.207 294.354 699.207C286.684 699.207 279.205 701.604 272.964 706.063L73.6 848.646V220.846H515.2V848.693ZM662.4 701.462L588.8 648.735V220.846C588.8 201.322 581.046 182.598 567.243 168.792C553.44 154.986 534.72 147.231 515.2 147.231H220.8V73.6153H662.4V701.462Z" fill="url(#paint0_linear_40_24)"/>
<path fill-rule="evenodd" clip-rule="evenodd" d="M988.645 154V794.225H1262.18C1310.11 794.225 1350.44 786.514 1383.16 771.092C1415.88 755.67 1440.57 734.725 1457.25 708.257C1474.13 681.581 1482.57 651.258 1482.57 617.288C1482.57 585.819 1475.9 558.726 1462.56 536.009C1449.22 513.085 1431.82 495.266 1410.36 482.553C1389.1 469.84 1366.28 462.963 1341.89 461.921V455.669C1364.19 450.667 1383.99 442.226 1401.29 430.347C1418.8 418.26 1432.55 402.838 1442.55 384.081C1452.56 365.116 1457.56 343.129 1457.56 318.12C1457.56 286.026 1449.64 257.682 1433.8 233.09C1417.96 208.29 1394.31 188.908 1362.84 174.945C1331.37 160.982 1292.08 154 1244.98 154H988.645ZM1234.36 683.561H1124V513.501H1237.48C1259.16 513.501 1277.81 517.357 1293.44 525.068C1309.28 532.779 1321.47 543.408 1330.01 556.954C1338.56 570.501 1342.83 586.131 1342.83 603.846C1342.83 628.021 1334.18 647.403 1316.89 661.991C1299.59 676.371 1272.08 683.561 1234.36 683.561ZM1224.35 421.907H1124V263.413H1226.85C1256.86 263.413 1280 270.499 1296.25 284.671C1312.72 298.843 1320.95 317.495 1320.95 340.628C1320.95 357.509 1316.68 371.993 1308.13 384.081C1299.8 396.169 1288.33 405.547 1273.74 412.216C1259.36 418.676 1242.9 421.907 1224.35 421.907ZM2622.62 794.225V641.774L2658.71 600.565L2789.55 794.225H2945.54L2758.39 522.051L2936.48 314.056H2783.61L2629.81 496.308H2622.62V154H2489.44V794.225H2622.62ZM4597.5 641.774V794.225H4464.33V154H4597.5V496.308H4604.69L4758.5 314.056H4911.36L4733.27 522.051L4920.43 794.225H4764.44L4633.59 600.565L4597.5 641.774ZM4156.94 314.057V794.226H4290.11V522.567C4290.11 502.977 4294.49 485.68 4303.24 470.674C4312.21 455.669 4324.29 443.998 4339.51 435.662C4354.93 427.117 4372.44 422.845 4392.03 422.845C4401.2 422.845 4411.3 423.574 4422.35 425.033C4433.39 426.492 4442.04 428.159 4448.3 430.035V311.868C4442.46 310.41 4435.69 309.263 4427.98 308.43C4420.27 307.596 4413.07 307.179 4406.41 307.179C4379.52 307.179 4355.76 314.89 4335.13 330.312C4314.5 345.526 4299.81 368.034 4291.05 397.836H4286.05V314.057H4156.94ZM3836.04 803.292C3805.4 803.292 3778.1 797.977 3754.13 787.348C3730.17 776.511 3711.2 760.568 3697.24 739.519C3683.48 718.262 3676.61 691.794 3676.61 660.116C3676.61 633.44 3681.5 611.036 3691.3 592.905C3701.09 574.774 3714.43 560.185 3731.31 549.14C3748.19 538.094 3767.37 529.758 3788.83 524.131C3810.51 518.504 3833.22 514.544 3856.98 512.252C3884.91 509.334 3907.42 506.625 3924.51 504.124C3941.59 501.414 3953.99 497.455 3961.71 492.245C3969.42 487.034 3973.27 479.323 3973.27 469.111V467.236C3973.27 447.437 3967.02 432.119 3954.52 421.282C3942.22 410.445 3924.71 405.026 3902 405.026C3878.03 405.026 3858.96 410.341 3844.79 420.969C3830.62 431.39 3821.24 444.519 3816.65 460.358L3693.49 450.355C3699.74 421.178 3712.03 395.961 3730.37 374.703C3748.71 353.237 3772.37 336.773 3801.34 325.311C3830.51 313.64 3864.28 307.805 3902.62 307.805C3929.3 307.805 3954.83 310.931 3979.21 317.183C4003.8 323.435 4025.58 333.126 4044.55 346.256C4063.72 359.385 4078.83 376.266 4089.88 396.899C4100.92 417.322 4106.44 441.81 4106.44 470.362V794.226H3980.15V727.64H3976.4C3968.69 742.645 3958.37 755.879 3945.45 767.341C3932.53 778.595 3917 787.453 3898.87 793.913C3880.74 800.165 3859.79 803.292 3836.04 803.292ZM3874.18 711.384C3893.77 711.384 3911.06 707.529 3926.07 699.818C3941.07 691.898 3952.85 681.269 3961.39 667.931C3969.94 654.593 3974.21 639.484 3974.21 622.603V571.647C3970.04 574.357 3964.31 576.858 3957.02 579.15C3949.93 581.234 3941.91 583.214 3932.95 585.09C3923.98 586.757 3915.02 588.32 3906.06 589.779C3897.1 591.029 3888.97 592.176 3881.68 593.218C3866.05 595.51 3852.4 599.157 3840.73 604.159C3829.06 609.161 3819.99 615.934 3813.53 624.479C3807.07 632.815 3803.84 643.235 3803.84 655.74C3803.84 673.871 3810.4 687.73 3823.53 697.317C3836.87 706.695 3853.75 711.384 3874.18 711.384ZM2948.99 314.057V794.226H3082.17V505.999C3082.17 488.285 3085.6 472.863 3092.48 459.733C3099.36 446.395 3108.63 436.079 3120.3 428.785C3132.18 421.282 3145.52 417.531 3160.32 417.531C3182.2 417.531 3199.81 424.512 3213.15 438.476C3226.7 452.439 3233.47 471.195 3233.47 494.745V794.226H3362.58V500.998C3362.58 475.989 3369.35 455.878 3382.9 440.664C3396.44 425.242 3415.3 417.531 3439.48 417.531C3460.74 417.531 3478.45 424.2 3492.62 437.538C3506.79 450.876 3513.88 470.883 3513.88 497.559V794.226H3646.74V471.3C3646.74 419.198 3632.67 378.976 3604.54 350.632C3576.61 322.081 3540.24 307.805 3495.44 307.805C3460.22 307.805 3429.68 316.141 3403.84 332.813C3378.21 349.278 3360.49 371.264 3350.7 398.774H3345.7C3337.98 370.848 3322.56 348.757 3299.43 332.501C3276.3 316.037 3248.27 307.805 3215.34 307.805C3182.83 307.805 3154.9 315.933 3131.56 332.188C3108.22 348.444 3091.54 370.639 3081.54 398.774H3075.91V314.057H2948.99ZM2093.36 772.656C2128.78 793.288 2170.78 803.604 2219.34 803.604C2267.9 803.604 2309.79 793.288 2345.01 772.656C2380.44 751.815 2407.74 722.847 2426.91 685.75C2446.08 648.445 2455.67 605.201 2455.67 556.017C2455.67 506.416 2446.08 463.068 2426.91 425.971C2407.74 388.666 2380.44 359.698 2345.01 339.066C2309.79 318.225 2267.9 307.805 2219.34 307.805C2170.78 307.805 2128.78 318.225 2093.36 339.066C2058.13 359.698 2030.94 388.666 2011.76 425.971C1992.59 463.068 1983 506.416 1983 556.017C1983 605.201 1992.59 648.445 2011.76 685.75C2030.94 722.847 2058.13 751.815 2093.36 772.656ZM2275.29 681.686C2260.5 694.191 2242.05 700.443 2219.96 700.443C2197.66 700.443 2178.91 694.191 2163.69 681.686C2148.69 668.973 2137.33 651.676 2129.62 629.793C2122.12 607.91 2118.36 583.006 2118.36 555.079C2118.36 527.153 2122.12 502.248 2129.62 480.365C2137.33 458.483 2148.69 441.185 2163.69 428.472C2178.91 415.759 2197.66 409.403 2219.96 409.403C2242.05 409.403 2260.5 415.759 2275.29 428.472C2290.09 441.185 2301.24 458.483 2308.74 480.365C2316.45 502.248 2320.31 527.153 2320.31 555.079C2320.31 583.006 2316.45 607.91 2308.74 629.793C2301.24 651.676 2290.09 668.973 2275.29 681.686ZM1732.28 803.604C1683.72 803.604 1641.73 793.288 1606.3 772.656C1571.08 751.815 1543.88 722.847 1524.7 685.75C1505.53 648.445 1495.94 605.201 1495.94 556.017C1495.94 506.416 1505.53 463.068 1524.7 425.971C1543.88 388.666 1571.08 359.698 1606.3 339.066C1641.73 318.225 1683.72 307.805 1732.28 307.805C1780.84 307.805 1822.73 318.225 1857.95 339.066C1893.38 359.698 1920.68 388.666 1939.85 425.971C1959.02 463.068 1968.61 506.416 1968.61 556.017C1968.61 605.201 1959.02 648.445 1939.85 685.75C1920.68 722.847 1893.38 751.815 1857.95 772.656C1822.73 793.288 1780.84 803.604 1732.28 803.604ZM1732.9 700.443C1754.99 700.443 1773.44 694.191 1788.24 681.686C1803.03 668.973 1814.18 651.676 1821.68 629.793C1829.4 607.91 1833.25 583.006 1833.25 555.079C1833.25 527.153 1829.4 502.248 1821.68 480.365C1814.18 458.483 1803.03 441.185 1788.24 428.472C1773.44 415.759 1754.99 409.403 1732.9 409.403C1710.6 409.403 1691.85 415.759 1676.63 428.472C1661.63 441.185 1650.27 458.483 1642.56 480.365C1635.06 502.248 1631.3 527.153 1631.3 555.079C1631.3 583.006 1635.06 607.91 1642.56 629.793C1650.27 651.676 1661.63 668.973 1676.63 681.686C1691.85 694.191 1710.6 700.443 1732.9 700.443Z" fill="#242424"/>
<defs>
<linearGradient id="paint0_linear_40_24" x1="-28" y1="1017" x2="755.5" y2="-22.5" gradientUnits="userSpaceOnUse">
<stop stop-color="#FF5F4A"/>
<stop offset="1" stop-color="#EF1C00"/>
</linearGradient>
</defs>
</svg>
