<svg width="11911" height="82" viewBox="0 0 11911 82" fill="none" xmlns="http://www.w3.org/2000/svg">
<path fill-rule="evenodd" clip-rule="evenodd" d="M12.0086 69.9914C19.6976 77.6804 30.1261 82 41 82C51.8739 82 62.3024 77.6804 69.9914 69.9914C77.6804 62.3024 82 51.8739 82 41C82 30.1261 77.6804 19.6976 69.9914 12.0086C62.3024 4.31963 51.8739 0 41 0C30.1261 0 19.6976 4.31963 12.0086 12.0086C4.31963 19.6976 0 30.1261 0 41C0 51.8739 4.31963 62.3024 12.0086 69.9914ZM5752.01 69.9914C5759.7 77.6804 5770.13 82 5781 82C5791.87 82 5802.3 77.6804 5809.99 69.9914C5817.68 62.3024 5822 51.8739 5822 41C5822 30.1261 5817.68 19.6976 5809.99 12.0086C5802.3 4.31963 5791.87 0 5781 0C5770.13 0 5759.7 4.31963 5752.01 12.0086C5744.32 19.6976 5740 30.1261 5740 41C5740 51.8739 5744.32 62.3024 5752.01 69.9914ZM5403.51 69.9914C5411.2 77.6804 5421.63 82 5432.5 82C5443.37 82 5453.8 77.6804 5461.49 69.9914C5469.18 62.3024 5473.5 51.8739 5473.5 41C5473.5 30.1261 5469.18 19.6976 5461.49 12.0086C5453.8 4.31963 5443.37 0 5432.5 0C5421.63 0 5411.2 4.31963 5403.51 12.0086C5395.82 19.6976 5391.5 30.1261 5391.5 41C5391.5 51.8739 5395.82 62.3024 5403.51 69.9914ZM4686.01 69.9914C4693.7 77.6804 4704.13 82 4715 82C4725.87 82 4736.3 77.6804 4743.99 69.9914C4751.68 62.3024 4756 51.8739 4756 41C4756 30.1261 4751.68 19.6976 4743.99 12.0086C4736.3 4.31963 4725.87 0 4715 0C4704.13 0 4693.7 4.31963 4686.01 12.0086C4678.32 19.6976 4674 30.1261 4674 41C4674 51.8739 4678.32 62.3024 4686.01 69.9914ZM3968.51 69.9914C3976.2 77.6804 3986.63 82 3997.5 82C4008.37 82 4018.8 77.6804 4026.49 69.9914C4034.18 62.3024 4038.5 51.8739 4038.5 41C4038.5 30.1261 4034.18 19.6976 4026.49 12.0086C4018.8 4.31963 4008.37 0 3997.5 0C3986.63 0 3976.2 4.31963 3968.51 12.0086C3960.82 19.6976 3956.5 30.1261 3956.5 41C3956.5 51.8739 3960.82 62.3024 3968.51 69.9914ZM3251.01 69.9914C3258.7 77.6804 3269.13 82 3280 82C3290.87 82 3301.3 77.6804 3308.99 69.9914C3316.68 62.3024 3321 51.8739 3321 41C3321 30.1261 3316.68 19.6976 3308.99 12.0086C3301.3 4.31963 3290.87 0 3280 0C3269.13 0 3258.7 4.31963 3251.01 12.0086C3243.32 19.6976 3239 30.1261 3239 41C3239 51.8739 3243.32 62.3024 3251.01 69.9914ZM2882.01 69.9914C2889.7 77.6804 2900.13 82 2911 82C2921.87 82 2932.3 77.6804 2939.99 69.9914C2947.68 62.3024 2952 51.8739 2952 41C2952 30.1261 2947.68 19.6976 2939.99 12.0086C2932.3 4.31963 2921.87 0 2911 0C2900.13 0 2889.7 4.31963 2882.01 12.0086C2874.32 19.6976 2870 30.1261 2870 41C2870 51.8739 2874.32 62.3024 2882.01 69.9914ZM2533.51 69.9914C2541.2 77.6804 2551.63 82 2562.5 82C2573.37 82 2583.8 77.6804 2591.49 69.9914C2599.18 62.3024 2603.5 51.8739 2603.5 41C2603.5 30.1261 2599.18 19.6976 2591.49 12.0086C2583.8 4.31963 2573.37 0 2562.5 0C2551.63 0 2541.2 4.31963 2533.51 12.0086C2525.82 19.6976 2521.5 30.1261 2521.5 41C2521.5 51.8739 2525.82 62.3024 2533.51 69.9914ZM5034.51 69.9914C5042.2 77.6804 5052.63 82 5063.5 82C5074.37 82 5084.8 77.6804 5092.49 69.9914C5100.18 62.3024 5104.5 51.8739 5104.5 41C5104.5 30.1261 5100.18 19.6976 5092.49 12.0086C5084.8 4.31963 5074.37 0 5063.5 0C5052.63 0 5042.2 4.31963 5034.51 12.0086C5026.82 19.6976 5022.5 30.1261 5022.5 41C5022.5 51.8739 5026.82 62.3024 5034.51 69.9914ZM4317.01 69.9914C4324.7 77.6804 4335.13 82 4346 82C4356.87 82 4367.3 77.6804 4374.99 69.9914C4382.68 62.3024 4387 51.8739 4387 41C4387 30.1261 4382.68 19.6976 4374.99 12.0086C4367.3 4.31963 4356.87 0 4346 0C4335.13 0 4324.7 4.31963 4317.01 12.0086C4309.32 19.6976 4305 30.1261 4305 41C4305 51.8739 4309.32 62.3024 4317.01 69.9914ZM3599.51 69.9914C3607.2 77.6804 3617.63 82 3628.5 82C3639.37 82 3649.8 77.6804 3657.49 69.9914C3665.18 62.3024 3669.5 51.8739 3669.5 41C3669.5 30.1261 3665.18 19.6976 3657.49 12.0086C3649.8 4.31963 3639.37 0 3628.5 0C3617.63 0 3607.2 4.31963 3599.51 12.0086C3591.82 19.6976 3587.5 30.1261 3587.5 41C3587.5 51.8739 3591.82 62.3024 3599.51 69.9914ZM2164.51 69.9914C2172.2 77.6804 2182.63 82 2193.5 82C2204.37 82 2214.8 77.6804 2222.49 69.9914C2230.18 62.3024 2234.5 51.8739 2234.5 41C2234.5 30.1261 2230.18 19.6976 2222.49 12.0086C2214.8 4.31963 2204.37 0 2193.5 0C2182.63 0 2172.2 4.31963 2164.51 12.0086C2156.82 19.6976 2152.5 30.1261 2152.5 41C2152.5 51.8739 2156.82 62.3024 2164.51 69.9914ZM1816.01 69.9914C1823.7 77.6804 1834.13 82 1845 82C1855.87 82 1866.3 77.6804 1873.99 69.9914C1881.68 62.3024 1886 51.8739 1886 41C1886 30.1261 1881.68 19.6976 1873.99 12.0086C1866.3 4.31963 1855.87 0 1845 0C1834.13 0 1823.7 4.31963 1816.01 12.0086C1808.32 19.6976 1804 30.1261 1804 41C1804 51.8739 1808.32 62.3024 1816.01 69.9914ZM1447.01 69.9914C1454.7 77.6804 1465.13 82 1476 82C1486.87 82 1497.3 77.6804 1504.99 69.9914C1512.68 62.3024 1517 51.8739 1517 41C1517 30.1261 1512.68 19.6976 1504.99 12.0086C1497.3 4.31963 1486.87 0 1476 0C1465.13 0 1454.7 4.31963 1447.01 12.0086C1439.32 19.6976 1435 30.1261 1435 41C1435 51.8739 1439.32 62.3024 1447.01 69.9914ZM1098.51 69.9914C1106.2 77.6804 1116.63 82 1127.5 82C1138.37 82 1148.8 77.6804 1156.49 69.9914C1164.18 62.3024 1168.5 51.8739 1168.5 41C1168.5 30.1261 1164.18 19.6976 1156.49 12.0086C1148.8 4.31963 1138.37 0 1127.5 0C1116.63 0 1106.2 4.31963 1098.51 12.0086C1090.82 19.6976 1086.5 30.1261 1086.5 41C1086.5 51.8739 1090.82 62.3024 1098.51 69.9914ZM729.509 69.9914C737.198 77.6804 747.626 82 758.5 82C769.374 82 779.802 77.6804 787.491 69.9914C795.18 62.3024 799.5 51.8739 799.5 41C799.5 30.1261 795.18 19.6976 787.491 12.0086C779.802 4.31963 769.374 0 758.5 0C747.626 0 737.198 4.31963 729.509 12.0086C721.82 19.6976 717.5 30.1261 717.5 41C717.5 51.8739 721.82 62.3024 729.509 69.9914ZM381.009 69.9914C388.698 77.6804 399.126 82 410 82C420.874 82 431.302 77.6804 438.991 69.9914C446.68 62.3024 451 51.8739 451 41C451 30.1261 446.68 19.6976 438.991 12.0086C431.302 4.31963 420.874 0 410 0C399.126 0 388.698 4.31963 381.009 12.0086C373.32 19.6976 369 30.1261 369 41C369 51.8739 373.32 62.3024 381.009 69.9914ZM6100.51 69.9914C6108.2 77.6804 6118.63 82 6129.5 82C6140.37 82 6150.8 77.6804 6158.49 69.9914C6166.18 62.3024 6170.5 51.8739 6170.5 41C6170.5 30.1261 6166.18 19.6976 6158.49 12.0086C6150.8 4.31963 6140.37 0 6129.5 0C6118.63 0 6108.2 4.31963 6100.51 12.0086C6092.82 19.6976 6088.5 30.1261 6088.5 41C6088.5 51.8739 6092.82 62.3024 6100.51 69.9914ZM11840.5 69.9914C11848.2 77.6804 11858.6 82 11869.5 82C11880.4 82 11890.8 77.6804 11898.5 69.9914C11906.2 62.3024 11910.5 51.8739 11910.5 41C11910.5 30.1261 11906.2 19.6976 11898.5 12.0086C11890.8 4.31963 11880.4 0 11869.5 0C11858.6 0 11848.2 4.31963 11840.5 12.0086C11832.8 19.6976 11828.5 30.1261 11828.5 41C11828.5 51.8739 11832.8 62.3024 11840.5 69.9914ZM11492 69.9914C11499.7 77.6804 11510.1 82 11521 82C11531.9 82 11542.3 77.6804 11550 69.9914C11557.7 62.3024 11562 51.8739 11562 41C11562 30.1261 11557.7 19.6976 11550 12.0086C11542.3 4.31963 11531.9 0 11521 0C11510.1 0 11499.7 4.31963 11492 12.0086C11484.3 19.6976 11480 30.1261 11480 41C11480 51.8739 11484.3 62.3024 11492 69.9914ZM10774.5 69.9914C10782.2 77.6804 10792.6 82 10803.5 82C10814.4 82 10824.8 77.6804 10832.5 69.9914C10840.2 62.3024 10844.5 51.8739 10844.5 41C10844.5 30.1261 10840.2 19.6976 10832.5 12.0086C10824.8 4.31963 10814.4 0 10803.5 0C10792.6 0 10782.2 4.31963 10774.5 12.0086C10766.8 19.6976 10762.5 30.1261 10762.5 41C10762.5 51.8739 10766.8 62.3024 10774.5 69.9914ZM10057 69.9914C10064.7 77.6804 10075.1 82 10086 82C10096.9 82 10107.3 77.6804 10115 69.9914C10122.7 62.3024 10127 51.8739 10127 41C10127 30.1261 10122.7 19.6976 10115 12.0086C10107.3 4.31963 10096.9 0 10086 0C10075.1 0 10064.7 4.31963 10057 12.0086C10049.3 19.6976 10045 30.1261 10045 41C10045 51.8739 10049.3 62.3024 10057 69.9914ZM9339.51 69.9914C9347.2 77.6804 9357.63 82 9368.5 82C9379.37 82 9389.8 77.6804 9397.49 69.9914C9405.18 62.3024 9409.5 51.8739 9409.5 41C9409.5 30.1261 9405.18 19.6976 9397.49 12.0086C9389.8 4.31963 9379.37 0 9368.5 0C9357.63 0 9347.2 4.31963 9339.51 12.0086C9331.82 19.6976 9327.5 30.1261 9327.5 41C9327.5 51.8739 9331.82 62.3024 9339.51 69.9914ZM8970.51 69.9914C8978.2 77.6804 8988.63 82 8999.5 82C9010.37 82 9020.8 77.6804 9028.49 69.9914C9036.18 62.3024 9040.5 51.8739 9040.5 41C9040.5 30.1261 9036.18 19.6976 9028.49 12.0086C9020.8 4.31963 9010.37 0 8999.5 0C8988.63 0 8978.2 4.31963 8970.51 12.0086C8962.82 19.6976 8958.5 30.1261 8958.5 41C8958.5 51.8739 8962.82 62.3024 8970.51 69.9914ZM8622.01 69.9914C8629.7 77.6804 8640.13 82 8651 82C8661.87 82 8672.3 77.6804 8679.99 69.9914C8687.68 62.3024 8692 51.8739 8692 41C8692 30.1261 8687.68 19.6976 8679.99 12.0086C8672.3 4.31963 8661.87 0 8651 0C8640.13 0 8629.7 4.31963 8622.01 12.0086C8614.32 19.6976 8610 30.1261 8610 41C8610 51.8739 8614.32 62.3024 8622.01 69.9914ZM11123 69.9914C11130.7 77.6804 11141.1 82 11152 82C11162.9 82 11173.3 77.6804 11181 69.9914C11188.7 62.3024 11193 51.8739 11193 41C11193 30.1261 11188.7 19.6976 11181 12.0086C11173.3 4.31963 11162.9 0 11152 0C11141.1 0 11130.7 4.31963 11123 12.0086C11115.3 19.6976 11111 30.1261 11111 41C11111 51.8739 11115.3 62.3024 11123 69.9914ZM10405.5 69.9914C10413.2 77.6804 10423.6 82 10434.5 82C10445.4 82 10455.8 77.6804 10463.5 69.9914C10471.2 62.3024 10475.5 51.8739 10475.5 41C10475.5 30.1261 10471.2 19.6976 10463.5 12.0086C10455.8 4.31963 10445.4 0 10434.5 0C10423.6 0 10413.2 4.31963 10405.5 12.0086C10397.8 19.6976 10393.5 30.1261 10393.5 41C10393.5 51.8739 10397.8 62.3024 10405.5 69.9914ZM9688.01 69.9914C9695.7 77.6804 9706.13 82 9717 82C9727.87 82 9738.3 77.6804 9745.99 69.9914C9753.68 62.3024 9758 51.8739 9758 41C9758 30.1261 9753.68 19.6976 9745.99 12.0086C9738.3 4.31963 9727.87 0 9717 0C9706.13 0 9695.7 4.31963 9688.01 12.0086C9680.32 19.6976 9676 30.1261 9676 41C9676 51.8739 9680.32 62.3024 9688.01 69.9914ZM8253.01 69.9914C8260.7 77.6804 8271.13 82 8282 82C8292.87 82 8303.3 77.6804 8310.99 69.9914C8318.68 62.3024 8323 51.8739 8323 41C8323 30.1261 8318.68 19.6976 8310.99 12.0086C8303.3 4.31963 8292.87 0 8282 0C8271.13 0 8260.7 4.31963 8253.01 12.0086C8245.32 19.6976 8241 30.1261 8241 41C8241 51.8739 8245.32 62.3024 8253.01 69.9914ZM7904.51 69.9914C7912.2 77.6804 7922.63 82 7933.5 82C7944.37 82 7954.8 77.6804 7962.49 69.9914C7970.18 62.3024 7974.5 51.8739 7974.5 41C7974.5 30.1261 7970.18 19.6976 7962.49 12.0086C7954.8 4.31963 7944.37 0 7933.5 0C7922.63 0 7912.2 4.31963 7904.51 12.0086C7896.82 19.6976 7892.5 30.1261 7892.5 41C7892.5 51.8739 7896.82 62.3024 7904.51 69.9914ZM7535.51 69.9914C7543.2 77.6804 7553.63 82 7564.5 82C7575.37 82 7585.8 77.6804 7593.49 69.9914C7601.18 62.3024 7605.5 51.8739 7605.5 41C7605.5 30.1261 7601.18 19.6976 7593.49 12.0086C7585.8 4.31963 7575.37 0 7564.5 0C7553.63 0 7543.2 4.31963 7535.51 12.0086C7527.82 19.6976 7523.5 30.1261 7523.5 41C7523.5 51.8739 7527.82 62.3024 7535.51 69.9914ZM7187.01 69.9914C7194.7 77.6804 7205.13 82 7216 82C7226.87 82 7237.3 77.6804 7244.99 69.9914C7252.68 62.3024 7257 51.8739 7257 41C7257 30.1261 7252.68 19.6976 7244.99 12.0086C7237.3 4.31963 7226.87 0 7216 0C7205.13 0 7194.7 4.31963 7187.01 12.0086C7179.32 19.6976 7175 30.1261 7175 41C7175 51.8739 7179.32 62.3024 7187.01 69.9914ZM6818.01 69.9914C6825.7 77.6804 6836.13 82 6847 82C6857.87 82 6868.3 77.6804 6875.99 69.9914C6883.68 62.3024 6888 51.8739 6888 41C6888 30.1261 6883.68 19.6976 6875.99 12.0086C6868.3 4.31963 6857.87 0 6847 0C6836.13 0 6825.7 4.31963 6818.01 12.0086C6810.32 19.6976 6806 30.1261 6806 41C6806 51.8739 6810.32 62.3024 6818.01 69.9914ZM6469.51 69.9914C6477.2 77.6804 6487.63 82 6498.5 82C6509.37 82 6519.8 77.6804 6527.49 69.9914C6535.18 62.3024 6539.5 51.8739 6539.5 41C6539.5 30.1261 6535.18 19.6976 6527.49 12.0086C6519.8 4.31963 6509.37 0 6498.5 0C6487.63 0 6477.2 4.31963 6469.51 12.0086C6461.82 19.6976 6457.5 30.1261 6457.5 41C6457.5 51.8739 6461.82 62.3024 6469.51 69.9914Z" fill="#D3D3D3"/>
</svg>
